<?xml version="1.0" standalone="no"?>
<!DOCTYPE svg PUBLIC "-//W3C//DTD SVG 20010904//EN"
 "http://www.w3.org/TR/2001/REC-SVG-20010904/DTD/svg10.dtd">
<svg version="1.0" xmlns="http://www.w3.org/2000/svg"
 width="75.000000pt" height="67.000000pt" viewBox="0 0 75.000000 67.000000"
 preserveAspectRatio="xMidYMid meet">
<metadata>
Created by potrace 1.16, written by Peter Selinger 2001-2019
</metadata>
<g transform="translate(0.000000,67.000000) scale(0.100000,-0.100000)"
fill="#000000" stroke="none">
<path d="M310 475 c-6 -8 -9 -18 -6 -23 3 -5 -6 -22 -19 -38 -18 -20 -25 -41
-25 -69 0 -22 -7 -53 -15 -69 -19 -36 -19 -50 0 -66 12 -10 31 -10 98 3 45 8
99 18 119 22 56 9 66 36 28 78 -16 19 -30 42 -30 50 0 20 -46 74 -69 82 -11 3
-21 15 -24 25 -6 23 -39 26 -57 5z"/>
</g>
</svg>
